<?xml version="1.0" standalone="no"?>
<!DOCTYPE svg PUBLIC "-//W3C//DTD SVG 20010904//EN"
 "http://www.w3.org/TR/2001/REC-SVG-20010904/DTD/svg10.dtd">
<svg version="1.0" xmlns="http://www.w3.org/2000/svg"
 width="399.000000pt" height="399.000000pt" viewBox="0 0 399.000000 399.000000"
 preserveAspectRatio="xMidYMid meet">

<g transform="translate(0.000000,399.000000) scale(0.100000,-0.100000)"
fill="#000000" stroke="none">
<path d="M0 1995 l0 -1995 1995 0 1995 0 0 1995 0 1995 -1995 0 -1995 0 0
-1995z m540 111 c0 -353 1 -364 21 -390 35 -44 57 -51 199 -56 146 -5 138 -1
131 -60 -2 -17 -220 -12 -281 6 -65 19 -114 64 -129 119 -7 26 -11 167 -11
393 l0 352 35 0 35 0 0 -364z m530 309 l0 -55 -35 0 -35 0 0 55 0 55 35 0 35
0 0 -55z m220 0 l0 -55 -35 0 -35 0 0 55 0 55 35 0 35 0 0 -55z m501 -221 c42
-17 42 -17 61 6 18 22 19 22 41 4 12 -10 24 -20 26 -21 3 -2 -6 -14 -18 -27
-19 -20 -21 -28 -12 -44 6 -12 11 -79 11 -161 l0 -141 -36 -39 c-48 -54 -109
-73 -217 -70 -90 3 -107 -2 -107 -31 0 -25 17 -29 161 -39 132 -8 169 -25 189
-87 16 -46 8 -125 -14 -159 -50 -76 -241 -96 -362 -39 -46 22 -74 70 -74 128
0 45 1 46 33 46 31 0 32 -2 32 -39 1 -48 23 -76 74 -92 55 -19 153 -16 200 6
45 20 54 39 49 100 -5 64 -34 77 -178 83 -111 4 -124 7 -151 29 -34 29 -39 74
-13 112 16 22 16 24 0 33 -38 21 -56 86 -55 203 0 61 5 125 12 144 35 99 214
148 348 95z m549 15 c101 -23 159 -93 160 -194 0 -72 -37 -127 -110 -163 -50
-24 -65 -27 -172 -27 l-118 0 0 -45 c0 -26 7 -56 16 -69 51 -72 228 -81 299
-15 24 22 32 21 74 -13 9 -6 -35 -46 -73 -65 -63 -32 -148 -41 -219 -23 -71
18 -102 38 -134 85 -22 31 -23 42 -23 223 0 171 2 193 20 221 44 72 170 110
280 85z m614 -10 c11 -6 33 -23 48 -37 l28 -26 23 22 c36 34 92 52 162 52 71
0 126 -18 163 -53 50 -46 52 -60 52 -322 l0 -245 -30 0 -30 0 0 235 c0 263 -3
280 -64 309 -43 20 -147 21 -186 1 -59 -30 -60 -37 -60 -302 l0 -243 -35 0
-35 0 0 244 0 244 -26 31 c-45 54 -132 63 -214 21 -63 -33 -65 -40 -68 -302
l-3 -238 -30 0 -29 0 0 310 0 310 30 0 c25 0 30 -4 30 -25 0 -29 7 -31 32 -8
43 39 183 52 242 22z m-1884 -299 l0 -310 -30 0 -29 0 -3 283 c-4 349 -5 337
33 337 l29 0 0 -310z m220 0 l0 -310 -30 0 -30 0 0 310 0 310 30 0 30 0 0
-310z"/>
<path d="M1563 2131 c-23 -11 -46 -28 -52 -39 -6 -12 -11 -74 -11 -140 l0
-120 30 -26 c78 -65 244 -56 294 16 12 17 16 49 16 134 0 125 -12 153 -76 180
-48 20 -151 17 -201 -5z"/>
<path d="M2181 2136 c-18 -6 -44 -24 -57 -40 -22 -24 -24 -37 -24 -122 l0 -94
68 0 c139 0 236 32 260 85 29 64 -1 145 -63 171 -41 17 -137 17 -184 0z"/>
</g>
</svg>
