<svg xmlns="http://www.w3.org/2000/svg" viewBox="0 0 205.5 205.5" style="enable-background:new 0 0 205.5 205.5" fill="#fff" xml:space="preserve"><path d="M198 143h-12.25v-24.333a7.5 7.5 0 0 0-7.5-7.5h-68V82.5h43.25A7.5 7.5 0 0 0 161 75V15.5a7.5 7.5 0 0 0-7.5-7.5H52a7.5 7.5 0 0 0-7.5 7.5V75a7.5 7.5 0 0 0 7.5 7.5h43.25v28.667h-68a7.5 7.5 0 0 0-7.5 7.5V143H7.5a7.5 7.5 0 0 0-7.5 7.5V190a7.5 7.5 0 0 0 7.5 7.5H47a7.5 7.5 0 0 0 7.5-7.5v-39.5A7.5 7.5 0 0 0 47 143H34.75v-16.833h60.5V143H83a7.5 7.5 0 0 0-7.5 7.5V190a7.5 7.5 0 0 0 7.5 7.5h39.5a7.5 7.5 0 0 0 7.5-7.5v-39.5a7.5 7.5 0 0 0-7.5-7.5h-12.25v-16.833h60.5V143H158.5a7.5 7.5 0 0 0-7.5 7.5V190a7.5 7.5 0 0 0 7.5 7.5H198a7.5 7.5 0 0 0 7.5-7.5v-39.5a7.5 7.5 0 0 0-7.5-7.5z"/></svg>