<svg xmlns="http://www.w3.org/2000/svg" width="800" height="800" viewBox="0 0 1200 1200" fill="#fff" xml:space="preserve"><path d="m506.274 0-18.238 181.063c-37.264 9.933-72.584 24.601-105.185 43.498L241.97 109.428 109.428 241.97l115.133 140.929a431.034 431.034 0 0 0-43.596 105.186L0 506.274v187.5l181.063 18.189c9.928 37.243 24.616 72.551 43.498 105.137L109.428 958.03l132.542 132.542L382.9 975.438c32.585 18.882 67.893 33.571 105.136 43.498L506.226 1200h187.5l18.189-180.966A430.925 430.925 0 0 0 817.1 975.438l140.931 115.134 132.542-132.542-115.135-140.882c18.897-32.601 33.565-67.921 43.498-105.185L1200 693.774v-187.5l-180.966-18.189a430.816 430.816 0 0 0-43.596-105.233l115.134-140.881L958.03 109.428 817.148 224.561a430.871 430.871 0 0 0-105.233-43.596L693.726 0H506.274zM600 426.544c95.787 0 173.456 77.669 173.456 173.456S695.787 773.456 600 773.456 426.544 695.787 426.544 600 504.213 426.544 600 426.544z"/></svg>