<svg xmlns="http://www.w3.org/2000/svg" width="800" height="800" viewBox="0 0 512 512" fill="#fff" xml:space="preserve"><path d="m360.102 240.012 10.156-10.266s15.609-13.406 33.406-7.328c30.984 10.578 66.781-.875 91.609-25.734 7.063-7.063 15.641-21.234 15.641-21.234a5.596 5.596 0 0 0 .922-4.672l-1.922-7.906a5.671 5.671 0 0 0-2.625-3.531 5.566 5.566 0 0 0-4.344-.547l-60.984 16.969a5.648 5.648 0 0 1-6.063-2.109l-28.015-38.594a5.564 5.564 0 0 1-1.016-4.063l5.641-41a5.595 5.595 0 0 1 4.063-4.656l64.406-17.922c2.906-.813 4.672-3.813 3.953-6.766l-2.547-10.359a5.61 5.61 0 0 0-2.563-3.5s-5.047-3.344-8.719-5.234c-36.578-18.891-82.64-13.031-113.312 17.656-22.656 22.656-31.531 53.688-27.375 83.156 3.203 22.656 1.703 34.703-8.078 45.047-.891.922-3.703 3.734-8.047 8l45.813 44.593zm-148.719 55.406A183455.446 183455.446 0 0 1 68.461 433.715a13.135 13.135 0 0 0-4.047 9.313 13.092 13.092 0 0 0 3.813 9.375l31.938 31.938a13.071 13.071 0 0 0 9.391 3.813 13.018 13.018 0 0 0 9.281-4.031L258.165 343.17l-46.782-47.752zM501.43 451.371a13.008 13.008 0 0 0 3.813-9.375c-.031-3.516-1.5-6.859-4.031-9.297L227.415 166.246l-43.953 43.969L450.805 483.09c2.438 2.547 5.781 4 9.297 4.047s6.891-1.344 9.391-3.828l31.937-31.938zM254.196 32.621c-32.969-12.859-86.281-14.719-117.156 16.141a472188.334 472188.334 0 0 0-59.875 59.891c-12.672 12.656-.906 25.219-10.266 34.563-9.359 9.359-24.313 0-32.734 8.422L3.29 182.527c-4.391 4.375-4.391 11.5 0 15.891l43.016 43.016c4.391 4.391 11.516 4.391 15.906 0l30.875-30.875c8.438-8.422-.938-23.375 8.438-32.719 12.609-12.625 26.375-10.484 34.328-2.547l15.891 15.891 17.219 4.531 43.953-43.953-5.063-16.688c-14.016-14.031-16.016-30.266-7.234-39.047 13.594-13.594 36.047-33.234 57.078-41.656 13.405-5.359 9.358-18.703-3.501-21.75zm-59.625 70.859c-.063.047 5.859-7.281 5.969-7.375l-5.969 7.375z"/></svg>