<svg width="800" height="800" viewBox="-0.02 0 60.031 60.031" xmlns="http://www.w3.org/2000/svg" fill="#fff"><path d="M543.4 238.4a1.957 1.957 0 0 0-.706 1.292 13.6 13.6 0 0 0 .354 4.205c.874 3.389 1.618 3.686 1.623 4.583a1.358 1.358 0 0 1-1.671 1.328c-3.37.027-8.255-6.354-8.863-6.957a3.36 3.36 0 0 0-.566-.362c-.655-.246-2.8.109-3.571.11-11.046 0-20-7.294-20-16.292s8.954-16.292 20-16.292 20 7.294 20 16.292c0 4.8-2.55 9.114-6.6 12.093ZM530 248.751c.375 0 .752-.025 1.138-.059a40.1 40.1 0 0 0 3.232 3.259c-4.224 5.606-11.735 9.371-20.37 9.371-.928 0-3.5-.428-4.286-.132a4.055 4.055 0 0 0-.678.436c-.73.728-6.592 8.425-10.636 8.393a1.63 1.63 0 0 1-2-1.6c0-1.082.9-1.44 1.947-5.528a16.512 16.512 0 0 0 .425-5.072 2.369 2.369 0 0 0-.847-1.559c-4.866-3.6-7.925-8.8-7.925-14.589 0-7.989 5.835-14.841 14.194-17.913a19.45 19.45 0 0 0-.194 2.622c0 12.335 11.664 22.371 26 22.371Z" transform="translate(-490 -210)" style="fill-rule:evenodd"/></svg>