<?xml version="1.0" encoding="utf-8"?>
<svg width="10px" height="10px" viewBox="0 0 6 5" baseProfile="full" fill="#fff" xmlns="http://www.w3.org/2000/svg">
  <path d="M 0 0 L 1.262 0 L 1.262 1.333 L 0 1.333 L 0 0 Z M 0 1.833 L 1.262 1.833 L 1.262 3.167 L 0 3.167 L 0 1.833 Z M 1.894 0 L 6 0 L 6 1.333 L 1.894 1.333 L 1.894 0 Z M 0 3.667 L 1.262 3.667 L 1.262 5 L 0 5 L 0 3.667 Z M 1.894 1.833 L 6 1.833 L 6 3.167 L 1.894 3.167 L 1.894 1.833 Z M 1.894 3.667 L 6 3.667 L 6 5 L 1.894 5 L 1.894 3.667 Z" style=""/>
</svg>